<svg width="226" height="35" fill="none" xmlns="http://www.w3.org/2000/svg"><path d="M44.62 6.188h3.497v9.21l10.934-9.21h2.285L50.93 14.94 64.13 27h-4.446L48.117 16.436V27H44.62V6.187zm26.477 0l7.208 10.546 7.189-10.547h1.898L79.324 18v9h-3.498v-8.666L67.512 6.188h3.585zm27.92 19.968c.516 0 1.025-.07 1.529-.21a4.36 4.36 0 001.336-.616c.399-.281.715-.621.95-1.02a2.68 2.68 0 00.369-1.406 2.97 2.97 0 00-.492-1.687 5.528 5.528 0 00-1.301-1.371 11.45 11.45 0 00-1.828-1.178 87.275 87.275 0 00-2.11-1.09 60.787 60.787 0 01-2.11-1.16 11.569 11.569 0 01-1.827-1.353 6.41 6.41 0 01-1.284-1.653c-.328-.61-.492-1.312-.492-2.11 0-.796.147-1.534.44-2.214a5.134 5.134 0 011.318-1.775c.586-.504 1.3-.897 2.145-1.178.843-.281 1.81-.422 2.9-.422 1.969 0 3.522.416 4.658 1.248 1.149.82 1.975 2.01 2.479 3.568l-1.793.826a8.062 8.062 0 00-.809-1.757 5.175 5.175 0 00-1.16-1.354 4.744 4.744 0 00-1.547-.861c-.586-.211-1.248-.317-1.986-.317-.656 0-1.23.094-1.723.282a3.523 3.523 0 00-1.23.72 2.889 2.889 0 00-.985 2.145c0 .55.164 1.055.493 1.512.34.445.785.873 1.336 1.283a17.7 17.7 0 001.898 1.16l2.144 1.143c.739.386 1.459.79 2.163 1.212.703.422 1.33.885 1.88 1.39a6.017 6.017 0 011.336 1.634c.34.586.51 1.242.51 1.969 0 .82-.158 1.593-.474 2.32a5.296 5.296 0 01-1.407 1.898c-.621.54-1.4.967-2.338 1.284-.937.316-2.021.474-3.252.474-.996 0-1.892-.111-2.689-.334a7.02 7.02 0 01-2.074-.949 6.608 6.608 0 01-1.547-1.53 9.07 9.07 0 01-1.055-2.073l1.881-.774c.434 1.371 1.154 2.438 2.162 3.2 1.02.75 2.215 1.124 3.586 1.124zm20.115 0c.516 0 1.026-.07 1.529-.21a4.36 4.36 0 001.336-.616c.399-.281.715-.621.95-1.02a2.68 2.68 0 00.369-1.406 2.97 2.97 0 00-.492-1.687 5.528 5.528 0 00-1.301-1.371 11.464 11.464 0 00-1.828-1.178 87.148 87.148 0 00-2.11-1.09 60.225 60.225 0 01-2.109-1.16 11.54 11.54 0 01-1.828-1.353 6.39 6.39 0 01-1.283-1.653c-.329-.61-.493-1.312-.493-2.11 0-.796.147-1.534.44-2.214a5.128 5.128 0 011.318-1.775c.586-.504 1.301-.897 2.145-1.178.843-.281 1.81-.422 2.9-.422 1.969 0 3.522.416 4.658 1.248 1.149.82 1.975 2.01 2.479 3.568l-1.793.826a8.062 8.062 0 00-.809-1.757 5.175 5.175 0 00-1.16-1.354 4.744 4.744 0 00-1.547-.861c-.586-.211-1.248-.317-1.986-.317-.656 0-1.231.094-1.723.282a3.52 3.52 0 00-1.23.72 2.905 2.905 0 00-.739 1.002 2.827 2.827 0 00-.246 1.143c0 .55.164 1.055.493 1.512.339.445.785.873 1.336 1.283a17.7 17.7 0 001.898 1.16l2.144 1.143c.739.386 1.459.79 2.163 1.212.703.422 1.33.885 1.88 1.39a6.017 6.017 0 011.336 1.634c.34.586.51 1.242.51 1.969 0 .82-.158 1.593-.474 2.32a5.296 5.296 0 01-1.407 1.898c-.621.54-1.4.967-2.338 1.284-.937.316-2.021.474-3.252.474-.996 0-1.892-.111-2.689-.334a7.015 7.015 0 01-2.074-.949 6.591 6.591 0 01-1.547-1.53 9.056 9.056 0 01-1.055-2.073l1.881-.774c.434 1.371 1.154 2.438 2.162 3.2 1.02.75 2.215 1.124 3.586 1.124zm28.887-19.968v1.335H137.05v7.454h7.33v1.335h-7.33v9.352h10.969V27h-14.467V6.187h14.467zm7.124 0h3.498v19.476H169.1V27h-13.957V6.187zm20.115 0h3.498V27h-3.498V6.187zm11.572 0h3.498v13.5a6.9 6.9 0 00.457 2.513c.305.785.739 1.47 1.301 2.057a6.306 6.306 0 002.057 1.389c.797.34 1.687.51 2.672.51.996 0 1.892-.17 2.689-.51a5.924 5.924 0 002.022-1.39 5.932 5.932 0 001.283-2.056 6.88 6.88 0 00.457-2.514v-13.5h1.547v13.5a8.625 8.625 0 01-.528 3.024 6.478 6.478 0 01-1.617 2.479c-.726.703-1.664 1.265-2.812 1.687-1.149.41-2.531.615-4.149.615-1.441 0-2.718-.205-3.832-.615-1.101-.422-2.027-.99-2.777-1.705a7.251 7.251 0 01-1.688-2.496 8.13 8.13 0 01-.58-3.059V6.187zm31.787 19.968c.516 0 1.026-.07 1.53-.21a4.365 4.365 0 001.335-.616c.399-.281.715-.621.95-1.02a2.68 2.68 0 00.369-1.406 2.97 2.97 0 00-.492-1.687 5.51 5.51 0 00-1.301-1.371 11.419 11.419 0 00-1.828-1.178 87.148 87.148 0 00-2.11-1.09 61.144 61.144 0 01-2.109-1.16 11.54 11.54 0 01-1.828-1.353 6.411 6.411 0 01-1.283-1.653c-.328-.61-.493-1.312-.493-2.11 0-.796.147-1.534.44-2.214a5.14 5.14 0 011.318-1.775c.586-.504 1.301-.897 2.145-1.178.844-.281 1.81-.422 2.9-.422 1.969 0 3.522.416 4.658 1.248 1.149.82 1.975 2.01 2.479 3.568l-1.793.826a8.015 8.015 0 00-.809-1.757 5.175 5.175 0 00-1.16-1.354 4.744 4.744 0 00-1.547-.861c-.586-.211-1.248-.317-1.986-.317-.656 0-1.23.094-1.723.282a3.52 3.52 0 00-1.23.72 2.89 2.89 0 00-.984 2.145c0 .55.164 1.055.492 1.512.34.445.785.873 1.336 1.283a17.7 17.7 0 001.898 1.16l2.145 1.143c.738.386 1.459.79 2.162 1.212.703.422 1.33.885 1.881 1.39a6.054 6.054 0 011.336 1.634 3.86 3.86 0 01.509 1.969c0 .82-.158 1.593-.474 2.32a5.285 5.285 0 01-1.407 1.898c-.621.54-1.4.967-2.337 1.284-.938.316-2.022.474-3.252.474-.997 0-1.893-.111-2.69-.334a7.027 7.027 0 01-2.074-.949 6.61 6.61 0 01-1.547-1.53 9.096 9.096 0 01-1.055-2.073l1.881-.774c.434 1.371 1.155 2.438 2.162 3.2 1.02.75 2.215 1.124 3.586 1.124zM0 18h18v17c-.15-9.33-8.122-16.859-18-17zm35 0H18V0c.141 9.878 7.67 17.85 17 18z" fill="#fff"/></svg>